<svg width="32" height="32" viewBox="0 0 32 32" fill="none" xmlns="http://www.w3.org/2000/svg">
  <!-- Background Circle -->
  <circle cx="16" cy="16" r="16" fill="url(#gradient)"/>

  <!-- Letter A -->
  <path d="M8 24L12 10H14L18 24H16L15.2 21H10.8L10 24H8ZM11.4 19H14.6L13 14L11.4 19Z" fill="white" font-weight="bold"/>

  <!-- Letter O -->
  <path d="M20 18C20 20.2 21.8 22 24 22C26.2 22 28 20.2 28 18C28 15.8 26.2 14 24 14C21.8 14 20 15.8 20 18ZM22 18C22 16.9 22.9 16 24 16C25.1 16 26 16.9 26 18C26 19.1 25.1 20 24 20C22.9 20 22 19.1 22 18Z" fill="white" font-weight="bold"/>

  <!-- Decorative Elements -->
  <circle cx="8" cy="8" r="1.5" fill="rgba(255,255,255,0.3)"/>
  <circle cx="24" cy="8" r="1" fill="rgba(255,255,255,0.2)"/>

  <!-- Gradient Definition -->
  <defs>
    <linearGradient id="gradient" x1="0%" y1="0%" x2="100%" y2="100%">
      <stop offset="0%" style="stop-color:#2563eb;stop-opacity:1" />
      <stop offset="100%" style="stop-color:#10b981;stop-opacity:1" />
    </linearGradient>
  </defs>
</svg>
